<?xml version="1.0" encoding="UTF-8"?>
<svg width="17px" height="17px" viewBox="0 0 17 17" version="1.1" xmlns="http://www.w3.org/2000/svg" xmlns:xlink="http://www.w3.org/1999/xlink">
    <!-- Generator: Sketch 51 (57462) - http://www.bohemiancoding.com/sketch -->
    <title>Combined Shape</title>
    <desc>Created with Sketch.</desc>
    <defs></defs>
    <g id="ERP规范和组件" stroke="none" stroke-width="1" fill="none" fill-rule="evenodd" opacity="0.5">
        <g id="首页" transform="translate(-1086.000000, -18.000000)" fill="#FFFFFF" fill-rule="nonzero">
            <g transform="translate(-1.000000, -9.000000)" id="顶部导航">
                <g transform="translate(0.000000, 9.000000)">
                    <g id="系统设置-copy" transform="translate(1072.000000, 0.000000)">
                        <g id="Group" transform="translate(15.000000, 16.000000)">
                            <path d="M16.0077009,7.90000329 C16.5541295,7.90000329 17,8.35678463 17,8.92092911 L17,12.0813094 C17,12.6435018 16.5541295,13.1022352 16.0077009,13.1022352 C15.353125,13.1022352 14.76875,13.4497014 14.4424107,14.0314143 C14.1160714,14.6131273 14.1160714,15.3080596 14.4424107,15.8897726 C14.715625,16.3777869 14.5524554,17.0024451 14.078125,17.2835413 L11.421875,18.8627554 C10.949442,19.1458037 10.3422991,18.9759747 10.0671875,18.4918646 C9.74084821,17.9081995 9.15457589,17.5607334 8.50189732,17.5607334 C7.84921875,17.5607334 7.26294643,17.9062475 6.93660714,18.4899125 C6.75256696,18.8178581 6.41863839,18.9993994 6.07522321,18.9993994 C5.90636161,18.9993994 5.7375,18.9545021 5.58191964,18.8627554 L2.921875,17.2835413 C2.69229911,17.1468973 2.52723214,16.9282669 2.45892857,16.6647392 C2.38872768,16.4012115 2.42477679,16.1259715 2.55758929,15.8897726 C2.88392857,15.3080596 2.88392857,14.6131273 2.55758929,14.0314143 C2.23125,13.4497014 1.64497768,13.1022352 0.992299107,13.1022352 C0.445870536,13.1022352 0,12.6435018 0,12.0813094 L0,8.92092911 C0,8.35873669 0.445870536,7.90000329 0.992299107,7.90000329 C1.64497768,7.90000329 2.23125,7.55253715 2.55758929,6.97082416 C2.88392857,6.38911117 2.88392857,5.69417888 2.55758929,5.11246589 C2.28247768,4.6264037 2.44564732,3.9997934 2.91997768,3.71869719 L5.58002232,2.13948308 C6.05055804,1.85643481 6.65959821,2.02431172 6.93470982,2.51232597 C7.26104911,3.09403895 7.84732143,3.4415051 8.5,3.4415051 C9.15457589,3.4415051 9.73895089,3.09403895 10.0652902,2.51232597 C10.3404018,2.02235966 10.9475446,1.85448276 11.421875,2.13753102 L14.078125,3.71869719 C14.5524554,3.9997934 14.715625,4.62445164 14.4424107,5.11246589 C14.1160714,5.69417888 14.1160714,6.38911117 14.4424107,6.97082416 C14.76875,7.55253715 15.3550223,7.90000329 16.0077009,7.90000329 Z M8.50093725,7 C6.5703561,7 5,8.57035647 5,10.5009381 C5,12.4296435 6.5703561,14 8.50093725,14 C10.4296422,14 11.9999983,12.4296435 11.9999983,10.5009381 C12.0018745,8.5684803 10.4315184,7 8.50093725,7 Z" id="Combined-Shape"></path>
                        </g>
                    </g>
                </g>
            </g>
        </g>
    </g>
</svg>