<?xml version="1.0" encoding="UTF-8"?>
<svg width="13px" height="13px" viewBox="0 0 13 13" version="1.1" xmlns="http://www.w3.org/2000/svg" xmlns:xlink="http://www.w3.org/1999/xlink">
    <!-- Generator: Sketch 51 (57462) - http://www.bohemiancoding.com/sketch -->
    <title>Combined Shape Copy</title>
    <desc>Created with Sketch.</desc>
    <defs></defs>
    <g id="ERP规范和组件" stroke="none" stroke-width="1" fill="none" fill-rule="evenodd" opacity="0.5">
        <g id="销售退回单详情-审批流2" transform="translate(-23.000000, -504.000000)" fill="#FFFFFF" fill-rule="nonzero">
            <g id="销售退回单详情">
                <g id="侧边导航-" transform="translate(0.000000, 50.000000)">
                    <g id="采购分类账-copy" transform="translate(0.000000, 440.000000)">
                        <path d="M35.241183,18.5117672 C35.6590402,18.5117672 36,18.8610706 36,19.2924752 L36,21.7092366 C36,22.1391484 35.6590402,22.4899446 35.241183,22.4899446 C34.740625,22.4899446 34.29375,22.755654 34.0441964,23.2004933 C33.7946429,23.6453327 33.7946429,24.1767515 34.0441964,24.6215908 C34.253125,24.9947782 34.1283482,25.472458 33.765625,25.6874139 L31.734375,26.8950483 C31.3731027,27.1114969 30.908817,26.9816277 30.6984375,26.6114259 C30.4488839,26.1650938 30.000558,25.8993844 29.5014509,25.8993844 C29.0023438,25.8993844 28.5540179,26.163601 28.3044643,26.6099331 C28.1637277,26.860715 27.9083705,26.9995407 27.6457589,26.9995407 C27.5166295,26.9995407 27.3875,26.9652075 27.2685268,26.8950483 L25.234375,25.6874139 C25.058817,25.5829215 24.9325893,25.4157335 24.8803571,25.2142124 C24.8266741,25.0126912 24.8542411,24.8022135 24.9558036,24.6215908 C25.2053571,24.1767515 25.2053571,23.6453327 24.9558036,23.2004933 C24.70625,22.755654 24.2579241,22.4899446 23.758817,22.4899446 C23.3409598,22.4899446 23,22.1391484 23,21.7092366 L23,19.2924752 C23,18.8625634 23.3409598,18.5117672 23.758817,18.5117672 C24.2579241,18.5117672 24.70625,18.2460578 24.9558036,17.8012185 C25.2053571,17.3563791 25.2053571,16.8249603 24.9558036,16.380121 C24.7454241,16.0084264 24.8702009,15.5292538 25.2329241,15.3142979 L27.2670759,14.1066635 C27.6268973,13.8902149 28.0926339,14.0185913 28.3030134,14.3917787 C28.552567,14.836618 29.0008929,15.1023274 29.5,15.1023274 C30.000558,15.1023274 30.447433,14.836618 30.6969866,14.3917787 C30.9073661,14.0170986 31.3716518,13.8887221 31.734375,14.1051708 L33.765625,15.3142979 C34.1283482,15.5292538 34.253125,16.0069336 34.0441964,16.380121 C33.7946429,16.8249603 33.7946429,17.3563791 34.0441964,17.8012185 C34.29375,18.2460578 34.7420759,18.5117672 35.241183,18.5117672 Z M29.5007167,17.8235294 C28.02439,17.8235294 26.8235294,19.0243902 26.8235294,20.5007174 C26.8235294,21.9756098 28.02439,23.1764706 29.5007167,23.1764706 C30.9756088,23.1764706 32.1764693,21.9756098 32.1764693,20.5007174 C32.177904,19.0229555 30.9770435,17.8235294 29.5007167,17.8235294 Z" id="Combined-Shape-Copy"></path>
                    </g>
                </g>
            </g>
        </g>
    </g>
</svg>