<?xml version="1.0" encoding="UTF-8"?>
<svg width="14px" height="13px" viewBox="0 0 14 13" version="1.1" xmlns="http://www.w3.org/2000/svg" xmlns:xlink="http://www.w3.org/1999/xlink">
    <!-- Generator: Sketch 51 (57462) - http://www.bohemiancoding.com/sketch -->
    <title>ic_next_week</title>
    <desc>Created with Sketch.</desc>
    <defs>
        <polygon id="path-1" points="0 0 16 0 16 16 0 16"></polygon>
    </defs>
    <g id="ERP规范和组件" stroke="none" stroke-width="1" fill="none" fill-rule="evenodd" opacity="0.5">
        <g id="首页" transform="translate(-20.000000, -185.000000)">
            <g transform="translate(-1.000000, -9.000000)" id="侧边导航-">
                <g transform="translate(1.000000, 59.000000)">
                    <g id="ic_next_week" transform="translate(19.000000, 133.000000)">
                        <g id="Icon-24px">
                            <mask id="mask-2" fill="white">
                                <use xlink:href="#path-1"></use>
                            </mask>
                            <g id="a"></g>
                            <path d="M13.3333333,4.66666667 L10.6666667,4.66666667 L10.6666667,3.33333333 C10.6666667,2.96666667 10.52,2.63333333 10.2733333,2.39333333 C10.0333333,2.14666667 9.7,2 9.33333333,2 L6.66666667,2 C5.93333333,2 5.33333333,2.6 5.33333333,3.33333333 L5.33333333,4.66666667 L2.66666667,4.66666667 C1.93333333,4.66666667 1.33333333,5.26666667 1.33333333,6 L1.33333333,13.3333333 C1.33333333,14.0666667 1.93333333,14.6666667 2.66666667,14.6666667 L13.3333333,14.6666667 C14.0666667,14.6666667 14.6666667,14.0666667 14.6666667,13.3333333 L14.6666667,6 C14.6666667,5.26666667 14.0666667,4.66666667 13.3333333,4.66666667 L13.3333333,4.66666667 Z M6.66666667,3.33333333 L9.33333333,3.33333333 L9.33333333,4.66666667 L6.66666667,4.66666667 L6.66666667,3.33333333 L6.66666667,3.33333333 Z M7.33333333,12.3333333 L6.66666667,11.6666667 L8.66666667,9.66666667 L6.66666667,7.66666667 L7.33333333,7 L10,9.66666667 L7.33333333,12.3333333 L7.33333333,12.3333333 Z" id="Shape" fill="#FFFFFF" mask="url(#mask-2)"></path>
                        </g>
                    </g>
                </g>
            </g>
        </g>
    </g>
</svg>