<?xml version="1.0" encoding="UTF-8"?>
<svg width="13px" height="13px" viewBox="0 0 13 13" version="1.1" xmlns="http://www.w3.org/2000/svg" xmlns:xlink="http://www.w3.org/1999/xlink">
    <!-- Generator: Sketch 51 (57462) - http://www.bohemiancoding.com/sketch -->
    <title>Shape</title>
    <desc>Created with Sketch.</desc>
    <defs></defs>
    <g id="ERP规范和组件" stroke="none" stroke-width="1" fill="none" fill-rule="evenodd" opacity="0.5">
        <g id="首页" transform="translate(-21.000000, -304.000000)" fill="#FFFFFF">
            <g transform="translate(-1.000000, -9.000000)" id="侧边导航-">
                <g transform="translate(1.000000, 59.000000)">
                    <g id="ic_extension" transform="translate(21.000000, 254.000000)">
                        <path d="M10.3214286,6.07142857 L10.3214286,3.64285714 C10.3214286,2.975 9.775,2.42857143 9.10714286,2.42857143 L6.67857143,2.42857143 L6.67857143,1.51785714 C6.67857143,0.68 5.99857143,0 5.16071429,0 C4.32285714,0 3.64285714,0.68 3.64285714,1.51785714 L3.64285714,2.42857143 L1.21428571,2.42857143 C0.546428571,2.42857143 0.00607142857,2.975 0.00607142857,3.64285714 L0.00607142857,5.95 L0.910714286,5.95 C1.81535714,5.95 2.55,6.68464286 2.55,7.58928571 C2.55,8.49392857 1.81535714,9.22857143 0.910714286,9.22857143 L0,9.22857143 L0,11.5357143 C0,12.2035714 0.546428571,12.75 1.21428571,12.75 L3.52142857,12.75 L3.52142857,11.8392857 C3.52142857,10.9346429 4.25607143,10.2 5.16071429,10.2 C6.06535714,10.2 6.8,10.9346429 6.8,11.8392857 L6.8,12.75 L9.10714286,12.75 C9.775,12.75 10.3214286,12.2035714 10.3214286,11.5357143 L10.3214286,9.10714286 L11.2321429,9.10714286 C12.07,9.10714286 12.75,8.42714286 12.75,7.58928571 C12.75,6.75142857 12.07,6.07142857 11.2321429,6.07142857 L10.3214286,6.07142857 Z" id="Shape"></path>
                    </g>
                </g>
            </g>
        </g>
    </g>
</svg>