<?xml version="1.0" encoding="UTF-8"?>
<svg width="17px" height="17px" viewBox="0 0 17 17" version="1.1" xmlns="http://www.w3.org/2000/svg" xmlns:xlink="http://www.w3.org/1999/xlink">
    <!-- Generator: Sketch 51 (57462) - http://www.bohemiancoding.com/sketch -->
    <title>退出</title>
    <desc>Created with Sketch.</desc>
    <defs></defs>
    <g id="ERP规范和组件" stroke="none" stroke-width="1" fill="none" fill-rule="evenodd" opacity="0.5">
        <g id="界面规范" transform="translate(-1117.000000, -121.000000)" fill="#FFFFFF">
            <g id="销售订单列表1" transform="translate(43.000000, 102.000000)">
                <g id="顶部导航" transform="translate(0.000000, 1.000000)">
                    <g id="Group">
                        <g transform="translate(889.000000, 16.000000)">
                            <g id="退出" transform="translate(185.000000, 2.000000)">
                                <path d="M16.8283138,8.06620976 C17.0351057,8.32472033 17.0351057,8.69194797 16.8283138,8.95032033 L13.9978,12.4885317 C13.810026,12.7232976 13.4946276,12.8137707 13.2109626,12.7142033 C12.9274081,12.614774 12.7375886,12.3469756 12.7375886,12.0464764 L12.7375886,9.92352195 L7.07642276,9.92352195 C6.29478211,9.92352195 5.66116585,9.28993333 5.66116585,8.50826504 C5.66116585,7.72662439 6.29478211,7.09300813 7.07642276,7.09300813 L12.7375886,7.09300813 L12.7375886,4.97005366 C12.7375886,4.66955447 12.9274081,4.40178374 13.2109626,4.30232683 C13.2877252,4.27543089 13.3667545,4.26238374 13.445065,4.26238374 C13.6601496,4.26238374 13.8634585,4.36009919 13.9978,4.52799837 L16.8283138,8.06620976 Z M9.90693659,14.1694309 C10.6886049,14.1694309 11.3223317,14.8030472 11.3223317,15.5846878 C11.3223317,16.3663561 10.6886049,16.9999447 9.90693659,16.9999447 L2.83051382,16.9999447 C1.26734309,16.9999447 0,15.7327398 0,14.1694309 L0,2.84709919 C0,1.28392846 1.26734309,0.0165853659 2.83051382,0.0165853659 L9.90693659,0.0165853659 C10.6886049,0.0165853659 11.3223317,0.650201626 11.3223317,1.43184228 C11.3223317,2.21351057 10.6886049,2.84709919 9.90693659,2.84709919 L4.24590894,2.84709919 C3.46424065,2.84709919 2.83051382,3.47587805 2.83051382,4.25135447 C2.83051382,4.25503089 2.83073496,4.25870732 2.83073496,4.26249431 L2.83051382,4.26249431 L2.83051382,12.754174 C2.83051382,13.5358146 3.45929268,14.1694309 4.23476911,14.1694309 C4.23844553,14.1694309 4.24212195,14.1692098 4.24590894,14.1692098 L4.24590894,14.1694309 L9.90693659,14.1694309 Z" id="Combined-Shape"></path>
                            </g>
                        </g>
                    </g>
                </g>
            </g>
        </g>
    </g>
</svg>